@startuml
!theme idta from https://raw.githubusercontent.com/admin-shell-io/aas-specs-antora/main/plantuml/

!include https://raw.githubusercontent.com/admin-shell-io/aas-specs/IgGa/integrate_pumls/documentation/IDTA-01001/modules/ROOT/partials/diagrams/classes/key.puml
!include https://raw.githubusercontent.com/admin-shell-io/aas-specs/IgGa/integrate_pumls/documentation/IDTA-01001/modules/ROOT/partials/diagrams/classes/enum-aas-submodel-elements.puml
!include https://raw.githubusercontent.com/admin-shell-io/aas-specs/IgGa/integrate_pumls/documentation/IDTA-01001/modules/ROOT/partials/diagrams/classes/enum-aas-identifiables.puml

enum KeyTypes <<enumeration>>

enum FragmentKeys <<enumeration>>

enum GenericFragmentKeys <<enumeration>> {
  FragmentReference
}

enum AasReferables <<enumeration>> {
  Referable
}

enum AasReferablesNonIdentifiables <<enumeration>>

enum GloballyIdentifiables <<enumeration>>

enum GenericGloballyIdentifiables <<enumeration>> {
  GlobalReference
}

Key ..> KeyTypes
KeyTypes --|> FragmentKeys
KeyTypes --|> AasReferables
KeyTypes --|> GloballyIdentifiables
FragmentKeys --|> GenericFragmentKeys
FragmentKeys --|> AasReferablesNonIdentifiables
AasReferables --|> AasReferablesNonIdentifiables
AasReferables --|> AasIdentifiables
AasReferablesNonIdentifiables --|> AasSubmodelElements
GloballyIdentifiables --|> AasIdentifiables
GloballyIdentifiables --|> GenericGloballyIdentifiables
@enduml